<svg width="84" height="19" viewBox="0 0 84 19" fill="none" xmlns="http://www.w3.org/2000/svg">
<path d="M8.33977 1.45901C8.35778 1.38696 8.3938 1.27889 8.3938 1.18882C8.3938 1.0087 8.21368 1.0087 8.17765 1.0087C8.15964 1.0087 7.27703 1.08075 7.18697 1.09876C6.88076 1.11677 6.61057 1.1528 6.28634 1.17081C5.83603 1.20684 5.70995 1.22485 5.70995 1.54907C5.70995 1.7292 5.85405 1.7292 6.10622 1.7292C6.98883 1.7292 7.00684 1.89131 7.00684 2.07143C7.00684 2.17951 6.97082 2.32361 6.95281 2.37764L5.85405 6.75467C5.65591 6.28635 5.16957 5.56585 4.23293 5.56585C2.19752 5.56585 0 8.19567 0 10.8615C0 12.6447 1.04472 13.6895 2.26957 13.6895C3.26025 13.6895 4.10684 12.9149 4.61119 12.3205C4.79131 13.3833 5.6379 13.6895 6.17827 13.6895C6.71864 13.6895 7.15094 13.3652 7.47517 12.7168C7.76337 12.1044 8.01554 11.0056 8.01554 10.9336C8.01554 10.8435 7.94349 10.7714 7.83542 10.7714C7.6733 10.7714 7.65529 10.8615 7.58324 11.1317C7.31306 12.1944 6.97082 13.3292 6.23231 13.3292C5.70995 13.3292 5.67392 12.8609 5.67392 12.5006C5.67392 12.4286 5.67392 12.0503 5.80001 11.546L8.33977 1.45901ZM4.70125 11.3659C4.61119 11.6721 4.61119 11.7081 4.35901 12.0503C3.96274 12.5547 3.17019 13.3292 2.32361 13.3292C1.5851 13.3292 1.17081 12.6628 1.17081 11.6C1.17081 10.6093 1.7292 8.59194 2.07143 7.83542C2.68386 6.57455 3.53044 5.9261 4.23293 5.9261C5.42175 5.9261 5.65591 7.40312 5.65591 7.54722C5.65591 7.56523 5.60187 7.79939 5.58386 7.83542L4.70125 11.3659Z" fill="white"/>
<path d="M16.982 6.16026C16.4056 6.26833 16.1895 6.70063 16.1895 7.04287C16.1895 7.47517 16.5317 7.61927 16.7839 7.61927C17.3242 7.61927 17.7025 7.15095 17.7025 6.66461C17.7025 5.90809 16.8379 5.56585 16.0814 5.56585C14.9826 5.56585 14.3702 6.6466 14.2081 6.98883C13.7938 5.6379 12.677 5.56585 12.3528 5.56585C10.5155 5.56585 9.54287 7.92548 9.54287 8.32176C9.54287 8.3938 9.61492 8.48387 9.741 8.48387C9.8851 8.48387 9.92113 8.37579 9.95715 8.30374C10.5696 6.30436 11.7764 5.9261 12.2988 5.9261C13.1093 5.9261 13.2714 6.68262 13.2714 7.11492C13.2714 7.51119 13.1634 7.92548 12.9472 8.79008L12.3348 11.2578C12.0646 12.3385 11.5422 13.3292 10.5876 13.3292C10.4975 13.3292 10.0472 13.3292 9.66895 13.0951C10.3174 12.969 10.4615 12.4286 10.4615 12.2124C10.4615 11.8522 10.1913 11.636 9.84908 11.636C9.41678 11.636 8.94846 12.0143 8.94846 12.5907C8.94846 13.3472 9.79504 13.6895 10.5696 13.6895C11.4342 13.6895 12.0466 13.005 12.4249 12.2665C12.7131 13.3292 13.6137 13.6895 14.2801 13.6895C16.1174 13.6895 17.0901 11.3298 17.0901 10.9336C17.0901 10.8435 17.018 10.7714 16.91 10.7714C16.7478 10.7714 16.7298 10.8615 16.6758 11.0056C16.1895 12.5907 15.1447 13.3292 14.3342 13.3292C13.7037 13.3292 13.3615 12.8609 13.3615 12.1224C13.3615 11.7261 13.4336 11.4379 13.7218 10.2491L14.3522 7.79939C14.6224 6.71865 15.2348 5.9261 16.0634 5.9261C16.0994 5.9261 16.6037 5.9261 16.982 6.16026Z" fill="white"/>
<path d="M26.1939 0.66646C26.1939 0.648448 26.302 0.378261 26.302 0.342236C26.302 0.126087 26.1219 0 25.9778 0C25.8877 0 25.7256 -2.24511e-07 25.5815 0.396274L19.5473 17.346C19.5473 17.364 19.4392 17.6342 19.4392 17.6702C19.4392 17.8864 19.6194 18.0125 19.7635 18.0125C19.8715 18.0125 20.0337 17.9944 20.1597 17.6162L26.1939 0.66646Z" fill="white"/>
<path d="M36.3454 1.45901C36.3634 1.38696 36.3994 1.27889 36.3994 1.18882C36.3994 1.0087 36.2193 1.0087 36.1832 1.0087C36.1652 1.0087 35.2826 1.08075 35.1926 1.09876C34.8863 1.11677 34.6162 1.1528 34.2919 1.17081C33.8416 1.20684 33.7155 1.22485 33.7155 1.54907C33.7155 1.7292 33.8596 1.7292 34.1118 1.7292C34.9944 1.7292 35.0124 1.89131 35.0124 2.07143C35.0124 2.17951 34.9764 2.32361 34.9584 2.37764L33.8596 6.75467C33.6615 6.28635 33.1752 5.56585 32.2385 5.56585C30.2031 5.56585 28.0056 8.19567 28.0056 10.8615C28.0056 12.6447 29.0503 13.6895 30.2752 13.6895C31.2658 13.6895 32.1124 12.9149 32.6168 12.3205C32.7969 13.3833 33.6435 13.6895 34.1839 13.6895C34.7242 13.6895 35.1565 13.3652 35.4808 12.7168C35.769 12.1044 36.0211 11.0056 36.0211 10.9336C36.0211 10.8435 35.9491 10.7714 35.841 10.7714C35.6789 10.7714 35.6609 10.8615 35.5888 11.1317C35.3186 12.1944 34.9764 13.3292 34.2379 13.3292C33.7155 13.3292 33.6795 12.8609 33.6795 12.5006C33.6795 12.4286 33.6795 12.0503 33.8056 11.546L36.3454 1.45901ZM32.7068 11.3659C32.6168 11.6721 32.6168 11.7081 32.3646 12.0503C31.9683 12.5547 31.1758 13.3292 30.3292 13.3292C29.5907 13.3292 29.1764 12.6628 29.1764 11.6C29.1764 10.6093 29.7348 8.59194 30.077 7.83542C30.6894 6.57455 31.536 5.9261 32.2385 5.9261C33.4273 5.9261 33.6615 7.40312 33.6615 7.54722C33.6615 7.56523 33.6075 7.79939 33.5894 7.83542L32.7068 11.3659Z" fill="white"/>
<path d="M40.0702 6.26833H41.7273C42.0696 6.26833 42.2497 6.26833 42.2497 5.94411C42.2497 5.74597 42.1416 5.74597 41.7814 5.74597H40.1963L40.8627 3.11615C40.9348 2.86398 40.9348 2.82795 40.9348 2.70187C40.9348 2.41367 40.7006 2.25156 40.4664 2.25156C40.3224 2.25156 39.9081 2.30559 39.764 2.88199L39.0615 5.74597H37.3683C37.0081 5.74597 36.8459 5.74597 36.8459 6.08821C36.8459 6.26833 36.972 6.26833 37.3143 6.26833H38.9174L37.7286 11.0236C37.5845 11.6541 37.5304 11.8342 37.5304 12.0683C37.5304 12.9149 38.1248 13.6895 39.1335 13.6895C40.9528 13.6895 41.9255 11.0596 41.9255 10.9336C41.9255 10.8255 41.8534 10.7714 41.7453 10.7714C41.7093 10.7714 41.6373 10.7714 41.6012 10.8435C41.5832 10.8615 41.5652 10.8795 41.4391 11.1677C41.0609 12.0683 40.2323 13.3292 39.1876 13.3292C38.6472 13.3292 38.6112 12.8789 38.6112 12.4826C38.6112 12.4646 38.6112 12.1224 38.6652 11.9062L40.0702 6.26833Z" fill="white"/>
<path d="M59.9804 7.67331C60.2326 7.67331 60.5568 7.67331 60.5568 7.34908C60.5568 7.00684 60.2506 7.00684 59.9804 7.00684H49.371C49.1189 7.00684 48.7946 7.00684 48.7946 7.33107C48.7946 7.67331 49.1009 7.67331 49.371 7.67331H59.9804ZM59.9804 11.0236C60.2326 11.0236 60.5568 11.0236 60.5568 10.6994C60.5568 10.3572 60.2506 10.3572 59.9804 10.3572H49.371C49.1189 10.3572 48.7946 10.3572 48.7946 10.6814C48.7946 11.0236 49.1009 11.0236 49.371 11.0236H59.9804Z" fill="white"/>
<path d="M75.6033 1.45901C75.6213 1.38696 75.6573 1.27889 75.6573 1.18882C75.6573 1.0087 75.4772 1.0087 75.4412 1.0087C75.4232 1.0087 74.5406 1.08075 74.4505 1.09876C74.1443 1.11677 73.8741 1.1528 73.5499 1.17081C73.0996 1.20684 72.9735 1.22485 72.9735 1.54907C72.9735 1.7292 73.1176 1.7292 73.3697 1.7292C74.2524 1.7292 74.2704 1.89131 74.2704 2.07143C74.2704 2.17951 74.2343 2.32361 74.2163 2.37764L73.1176 6.75467C72.9194 6.28635 72.4331 5.56585 71.4964 5.56585C69.461 5.56585 67.2635 8.19567 67.2635 10.8615C67.2635 12.6447 68.3082 13.6895 69.5331 13.6895C70.5238 13.6895 71.3704 12.9149 71.8747 12.3205C72.0548 13.3833 72.9014 13.6895 73.4418 13.6895C73.9822 13.6895 74.4145 13.3652 74.7387 12.7168C75.0269 12.1044 75.2791 11.0056 75.2791 10.9336C75.2791 10.8435 75.207 10.7714 75.0989 10.7714C74.9368 10.7714 74.9188 10.8615 74.8468 11.1317C74.5766 12.1944 74.2343 13.3292 73.4958 13.3292C72.9735 13.3292 72.9374 12.8609 72.9374 12.5006C72.9374 12.4286 72.9374 12.0503 73.0635 11.546L75.6033 1.45901ZM71.9648 11.3659C71.8747 11.6721 71.8747 11.7081 71.6225 12.0503C71.2263 12.5547 70.4337 13.3292 69.5871 13.3292C68.8486 13.3292 68.4343 12.6628 68.4343 11.6C68.4343 10.6093 68.9927 8.59194 69.335 7.83542C69.9474 6.57455 70.794 5.9261 71.4964 5.9261C72.6853 5.9261 72.9194 7.40312 72.9194 7.54722C72.9194 7.56523 72.8654 7.79939 72.8474 7.83542L71.9648 11.3659Z" fill="white"/>
<path d="M83.9393 6.77268C83.9393 5.6379 83.3629 5.56585 83.2188 5.56585C82.7865 5.56585 82.3903 5.99815 82.3903 6.3584C82.3903 6.57455 82.5163 6.70063 82.5884 6.77268C82.7685 6.9348 83.2368 7.42113 83.2368 8.35778C83.2368 9.1143 82.1561 13.3292 79.9946 13.3292C78.8958 13.3292 78.6797 12.4106 78.6797 11.7441C78.6797 10.8435 79.094 9.58263 79.5803 8.28573C79.8685 7.54722 79.9406 7.3671 79.9406 7.00685C79.9406 6.25032 79.4002 5.56585 78.5176 5.56585C76.8604 5.56585 76.194 8.17765 76.194 8.32176C76.194 8.3938 76.266 8.48387 76.3921 8.48387C76.5542 8.48387 76.5722 8.41182 76.6443 8.15964C77.0766 6.61057 77.7791 5.9261 78.4635 5.9261C78.6257 5.9261 78.9319 5.9261 78.9319 6.52051C78.9319 6.98883 78.7337 7.51119 78.4635 8.19567C77.5989 10.5013 77.5989 11.0596 77.5989 11.4919C77.5989 11.8882 77.653 12.6267 78.2114 13.1311C78.8598 13.6895 79.7604 13.6895 79.9225 13.6895C82.9126 13.6895 83.9393 7.79939 83.9393 6.77268Z" fill="white"/>
</svg>
